<svg width="400" height="400" viewBox="0 0 400 400" fill="none" xmlns="http://www.w3.org/2000/svg">
<rect width="400" height="400" fill="#D4D4D8"/>
<path fill-rule="evenodd" clip-rule="evenodd" d="M140.5 122C140.5 106.485 146.663 91.6051 157.634 80.6342C168.605 69.6634 183.485 63.5 199 63.5C214.515 63.5 229.395 69.6634 240.366 80.6342C251.337 91.6051 257.5 106.485 257.5 122C257.5 137.515 251.337 152.395 240.366 163.366C229.395 174.337 214.515 180.5 199 180.5C183.485 180.5 168.605 174.337 157.634 163.366C146.663 152.395 140.5 137.515 140.5 122ZM91.763 305.365C92.2014 277.213 103.692 250.363 123.756 230.609C143.819 210.856 170.845 199.785 199 199.785C227.155 199.785 254.181 210.856 274.244 230.609C294.308 250.363 305.799 277.213 306.237 305.365C306.271 307.26 305.751 309.124 304.742 310.729C303.733 312.333 302.279 313.609 300.556 314.4C268.695 329.008 234.05 336.547 199 336.5C162.782 336.5 128.371 328.596 97.444 314.4C95.7213 313.609 94.2665 312.333 93.2575 310.729C92.2486 309.124 91.7292 307.26 91.763 305.365Z" fill="white"/>
</svg>
