<svg width="628" height="478" viewBox="0 0 628 478" fill="none" xmlns="http://www.w3.org/2000/svg">
<g clip-path="url(#clip0_47_523)">
<path d="M223.548 111.719C223.288 111.719 223.037 111.62 222.847 111.442C222.657 111.265 222.541 111.022 222.523 110.762C221.85 101.62 217.749 93.0691 211.042 86.8206C204.334 80.5721 195.514 77.0868 186.347 77.0621C185.25 77.0621 184.097 77.1179 182.921 77.2279C182.724 77.2464 182.526 77.2078 182.351 77.1168C182.176 77.0259 182.03 76.8863 181.932 76.7149C177.721 69.3446 171.432 63.3775 163.851 59.5584C156.27 55.7393 147.732 54.2373 139.302 55.2398C130.873 56.2423 122.925 59.7049 116.451 65.1955C109.977 70.6861 105.264 77.9615 102.899 86.1138C102.837 86.3323 102.703 86.5238 102.52 86.6582C102.337 86.7926 102.114 86.8623 101.887 86.8563L101.614 86.848C101.471 86.8432 101.329 86.8382 101.186 86.8382C94.2321 86.8599 87.4952 89.2583 82.0925 93.6354C76.6898 98.0125 72.9463 104.105 71.483 110.902C71.4343 111.133 71.3076 111.34 71.1243 111.489C70.9409 111.638 70.712 111.719 70.4759 111.719H1.52934C1.25687 111.718 0.995808 111.61 0.803397 111.417C0.610986 111.224 0.50293 110.962 0.50293 110.69C0.50293 110.417 0.610986 110.156 0.803397 109.963C0.995808 109.77 1.25687 109.662 1.52934 109.661H69.6523C71.3673 102.591 75.4011 96.299 81.1102 91.7892C86.8192 87.2795 93.8745 84.8119 101.15 84.7801C103.74 76.4026 108.708 68.9575 115.449 63.3493C122.19 57.7411 130.415 54.2111 139.125 53.1883C147.834 52.1655 156.653 53.6938 164.511 57.5876C172.368 61.4815 178.926 67.5731 183.386 75.1226C184.399 75.0437 185.392 75.004 186.347 75.004C196.035 75.0303 205.355 78.7136 212.444 85.317C219.532 91.9204 223.865 100.957 224.576 110.618C224.585 110.753 224.568 110.888 224.525 111.016C224.482 111.144 224.415 111.263 224.326 111.365C224.237 111.467 224.13 111.55 224.009 111.611C223.888 111.671 223.756 111.707 223.621 111.716C223.597 111.718 223.572 111.719 223.548 111.719Z" fill="#CBCBCB"/>
<path d="M211.303 124.913H42.5242C42.2513 124.913 41.9895 124.805 41.7965 124.612C41.6035 124.419 41.4951 124.157 41.4951 123.884C41.4951 123.611 41.6035 123.35 41.7965 123.157C41.9895 122.964 42.2513 122.855 42.5242 122.855H211.303C211.576 122.855 211.838 122.964 212.031 123.157C212.224 123.35 212.332 123.611 212.332 123.884C212.332 124.157 212.224 124.419 212.031 124.612C211.838 124.805 211.576 124.913 211.303 124.913Z" fill="#CBCBCB"/>
<path d="M83.6901 139.835H27.0875C26.9522 139.835 26.818 139.809 26.6929 139.757C26.5677 139.706 26.4539 139.63 26.3581 139.534C26.2622 139.439 26.1862 139.325 26.1343 139.2C26.0824 139.075 26.0557 138.941 26.0557 138.806C26.0557 138.67 26.0824 138.536 26.1343 138.411C26.1862 138.286 26.2622 138.173 26.3581 138.077C26.4539 137.981 26.5677 137.906 26.6929 137.854C26.818 137.803 26.9522 137.776 27.0875 137.776H83.6901C83.9626 137.777 84.2237 137.886 84.4161 138.079C84.6085 138.272 84.7165 138.533 84.7165 138.806C84.7165 139.078 84.6085 139.339 84.4161 139.532C84.2237 139.725 83.9626 139.834 83.6901 139.835Z" fill="#CBCBCB"/>
<path d="M136.61 340.062C136.61 381.898 92.7463 401.917 92.7463 401.917C92.7463 401.917 48.4323 381.898 47.5325 340.062C47.0036 315.471 67.4733 295.526 92.0715 295.526C97.9204 295.526 103.712 296.678 109.116 298.916C114.52 301.154 119.429 304.435 123.565 308.57C127.701 312.706 130.982 317.615 133.22 323.019C135.458 328.422 136.61 334.213 136.61 340.062Z" fill="#E5E5E5"/>
<path d="M107.593 404.391H77.9002L74.3008 389.996H111.192L107.593 404.391Z" fill="#CBCBCB"/>
<path d="M106.581 429.009H78.9126V443.427H106.581V429.009Z" fill="white"/>
<path d="M106.806 443.652H78.6875V428.784H106.806V443.652ZM79.1374 443.202H106.356V429.234H79.1374V443.202Z" fill="#CBCBCB"/>
<path d="M98.4181 406.089H87.0751L85.7734 404.043H99.7198L98.4181 406.089Z" fill="#CBCBCB"/>
<path d="M78.5749 404.391H78.125V426.434H78.5749V404.391Z" fill="#CBCBCB"/>
<path d="M107.368 404.391H106.918V426.434H107.368V404.391Z" fill="#CBCBCB"/>
<path d="M97.2561 389.752L96.9814 389.395C109.978 379.374 125.471 362.204 125.471 337.324C125.482 328.61 122.919 320.087 118.104 312.824C113.289 305.56 106.437 299.88 98.4061 296.496L98.5814 296.081C106.693 299.5 113.615 305.238 118.479 312.575C123.343 319.912 125.932 328.522 125.921 337.324C125.921 362.387 110.333 379.668 97.2561 389.752Z" fill="#CBCBCB"/>
<path d="M82.8597 389.752L82.585 389.396C95.5819 379.374 111.075 362.205 111.075 337.324C111.078 328.669 108.546 320.202 103.791 312.969C99.036 305.737 92.2662 300.055 84.318 296.627L84.4964 296.214C92.5252 299.677 99.3637 305.416 104.167 312.722C108.97 320.028 111.528 328.581 111.525 337.324C111.525 362.387 95.9366 379.668 82.8597 389.752Z" fill="#CBCBCB"/>
<path d="M101.284 389.752C88.2068 379.668 72.6187 362.387 72.6187 337.324C72.6151 328.581 75.173 320.028 79.9765 312.722C84.78 305.416 91.6185 299.677 99.6475 296.214L99.8258 296.627C91.8776 300.055 85.1077 305.737 80.3525 312.969C75.5973 320.202 73.065 328.669 73.0685 337.324C73.0685 362.204 88.5614 379.374 101.558 389.395L101.284 389.752Z" fill="#CBCBCB"/>
<path d="M86.8873 389.752C73.8104 379.668 58.2222 362.387 58.2222 337.324C58.2075 328.487 60.8147 319.844 65.7139 312.489C70.613 305.134 77.5839 299.397 85.7446 296.005L85.918 296.42C77.8393 299.778 70.9384 305.457 66.0885 312.738C61.2385 320.02 58.6575 328.576 58.6721 337.324C58.6721 362.205 74.165 379.374 87.1619 389.395L86.8873 389.752Z" fill="#CBCBCB"/>
<path d="M92.2966 295.526H91.8467V389.996H92.2966V295.526Z" fill="#CBCBCB"/>
<path d="M87.0031 425.74L78.7534 433.99L79.0715 434.308L87.3212 426.059L87.0031 425.74Z" fill="#CBCBCB"/>
<path d="M91.0137 425.603L78.7505 438.5L79.0765 438.81L91.3397 425.913L91.0137 425.603Z" fill="#CBCBCB"/>
<path d="M109.167 425.759H75.4258V429.808H109.167V425.759Z" fill="white"/>
<path d="M109.392 430.033H75.2007V425.534H109.392V430.033ZM75.6506 429.583H108.942V425.984H75.6506V429.583Z" fill="#CBCBCB"/>
<path d="M221.5 234.036C221.5 261.649 192.548 274.862 192.548 274.862C192.548 274.862 163.299 261.649 162.705 234.036C162.356 217.805 175.867 204.64 192.103 204.64C199.899 204.64 207.377 207.737 212.89 213.25C218.403 218.763 221.5 226.239 221.5 234.036Z" fill="#E5E5E5"/>
<path d="M202.347 276.495H182.749L180.374 266.994H204.723L202.347 276.495Z" fill="#CBCBCB"/>
<path d="M201.679 292.745H183.417V302.261H201.679V292.745Z" fill="white"/>
<path d="M201.828 302.409H183.269V292.596H201.828V302.409ZM183.566 302.112H201.531V292.893H183.566V302.112Z" fill="#CBCBCB"/>
<path d="M196.292 277.616H188.804L187.945 276.266H197.151L196.292 277.616Z" fill="#CBCBCB"/>
<path d="M183.194 276.496H182.897V291.045H183.194V276.496Z" fill="#CBCBCB"/>
<path d="M202.199 276.496H201.902V291.045H202.199V276.496Z" fill="#CBCBCB"/>
<path d="M195.525 266.833L195.343 266.598C203.922 259.983 214.148 248.651 214.148 232.229C214.155 226.477 212.463 220.851 209.285 216.057C206.107 211.263 201.584 207.514 196.284 205.28L196.399 205.007C201.754 207.263 206.322 211.05 209.533 215.893C212.743 220.736 214.452 226.419 214.445 232.229C214.445 248.771 204.156 260.177 195.525 266.833Z" fill="#CBCBCB"/>
<path d="M186.022 266.833L185.841 266.598C194.419 259.983 204.645 248.651 204.645 232.229C204.648 226.516 202.976 220.927 199.838 216.153C196.699 211.38 192.231 207.63 186.985 205.367L187.102 205.094C192.402 207.38 196.915 211.168 200.086 215.99C203.256 220.812 204.945 226.458 204.942 232.229C204.942 248.771 194.653 260.178 186.022 266.833Z" fill="#CBCBCB"/>
<path d="M198.183 266.833C189.552 260.178 179.263 248.771 179.263 232.229C179.261 226.458 180.949 220.812 184.12 215.99C187.29 211.168 191.804 207.38 197.103 205.094L197.221 205.367C191.975 207.63 187.506 211.379 184.368 216.153C181.229 220.927 179.558 226.516 179.56 232.229C179.56 248.651 189.786 259.983 198.365 266.598L198.183 266.833Z" fill="#CBCBCB"/>
<path d="M188.681 266.833C180.05 260.178 169.761 248.771 169.761 232.229C169.751 226.396 171.472 220.691 174.706 215.836C177.939 210.982 182.54 207.195 187.927 204.956L188.041 205.23C182.709 207.447 178.154 211.195 174.953 216.001C171.752 220.807 170.048 226.454 170.058 232.229C170.058 248.651 180.284 259.983 188.862 266.598L188.681 266.833Z" fill="#CBCBCB"/>
<path d="M192.251 204.64H191.954V266.994H192.251V204.64Z" fill="#CBCBCB"/>
<path d="M188.757 290.587L183.312 296.032L183.522 296.242L188.967 290.797L188.757 290.587Z" fill="#CBCBCB"/>
<path d="M191.404 290.497L183.31 299.009L183.525 299.214L191.619 290.701L191.404 290.497Z" fill="#CBCBCB"/>
<path d="M203.387 290.599H181.116V293.272H203.387V290.599Z" fill="white"/>
<path d="M203.535 293.42H180.967V290.451H203.535V293.42ZM181.264 293.123H203.238V290.748H181.264V293.123Z" fill="#CBCBCB"/>
<path d="M467.622 271.789C467.809 271.789 467.988 271.718 468.125 271.59C468.261 271.463 468.344 271.289 468.357 271.103C468.84 264.55 471.779 258.421 476.587 253.942C481.395 249.463 487.717 246.965 494.288 246.947C495.074 246.947 495.9 246.987 496.743 247.066C496.884 247.079 497.026 247.052 497.152 246.986C497.278 246.921 497.382 246.821 497.452 246.698C500.471 241.415 504.978 237.138 510.412 234.401C515.846 231.663 521.966 230.587 528.009 231.305C534.051 232.024 539.748 234.506 544.388 238.441C549.028 242.377 552.407 247.592 554.102 253.435C554.147 253.592 554.242 253.729 554.374 253.825C554.505 253.922 554.664 253.972 554.827 253.967L555.023 253.961C555.125 253.958 555.227 253.954 555.33 253.954C560.314 253.97 565.143 255.689 569.016 258.827C572.888 261.964 575.572 266.331 576.621 271.203C576.656 271.369 576.746 271.517 576.878 271.624C577.009 271.731 577.173 271.789 577.342 271.789H626.763C626.86 271.789 626.956 271.77 627.046 271.733C627.135 271.696 627.217 271.642 627.286 271.573C627.354 271.505 627.409 271.424 627.446 271.334C627.483 271.244 627.503 271.148 627.503 271.051C627.503 270.954 627.483 270.858 627.446 270.768C627.409 270.679 627.354 270.597 627.286 270.529C627.217 270.46 627.135 270.406 627.046 270.369C626.956 270.332 626.86 270.313 626.763 270.313H577.933C576.704 265.246 573.812 260.736 569.72 257.503C565.628 254.271 560.571 252.502 555.356 252.479C553.499 246.474 549.939 241.138 545.106 237.118C540.274 233.098 534.379 230.568 528.136 229.835C521.893 229.102 515.571 230.197 509.939 232.988C504.307 235.779 499.607 240.146 496.41 245.557C495.684 245.5 494.972 245.472 494.288 245.472C487.344 245.491 480.663 248.131 475.582 252.864C470.501 257.597 467.395 264.075 466.886 270.999C466.879 271.096 466.891 271.193 466.922 271.285C466.953 271.377 467.001 271.462 467.065 271.535C467.128 271.608 467.205 271.668 467.292 271.711C467.379 271.754 467.473 271.78 467.57 271.787C467.587 271.788 467.605 271.789 467.622 271.789Z" fill="#CBCBCB"/>
<path d="M476.399 281.246H597.377C597.573 281.246 597.76 281.169 597.899 281.03C598.037 280.892 598.115 280.704 598.115 280.509C598.115 280.313 598.037 280.125 597.899 279.987C597.76 279.849 597.573 279.771 597.377 279.771H476.399C476.203 279.771 476.016 279.849 475.877 279.987C475.739 280.125 475.661 280.313 475.661 280.509C475.661 280.704 475.739 280.892 475.877 281.03C476.016 281.169 476.203 281.246 476.399 281.246Z" fill="#CBCBCB"/>
<path d="M567.87 291.942H608.443C608.638 291.941 608.825 291.863 608.963 291.725C609.1 291.587 609.178 291.399 609.178 291.204C609.178 291.009 609.1 290.822 608.963 290.683C608.825 290.545 608.638 290.467 608.443 290.466H567.87C567.774 290.466 567.678 290.486 567.588 290.523C567.499 290.56 567.417 290.614 567.349 290.683C567.28 290.751 567.226 290.832 567.189 290.922C567.152 291.011 567.133 291.107 567.133 291.204C567.133 291.301 567.152 291.397 567.189 291.486C567.226 291.576 567.28 291.657 567.349 291.726C567.417 291.794 567.499 291.848 567.588 291.886C567.678 291.923 567.774 291.942 567.87 291.942Z" fill="#CBCBCB"/>
<path d="M379.343 469.919H376.914L375.758 460.554H379.343V469.919Z" fill="#9F616A"/>
<path d="M379.962 472.273H372.132V472.174C372.133 471.366 372.455 470.591 373.026 470.02C373.597 469.449 374.372 469.127 375.18 469.127H379.962V472.273Z" fill="#2F2E41"/>
<path d="M410.655 465.318L408.574 466.569L402.76 459.136L405.832 457.291L410.655 465.318Z" fill="#9F616A"/>
<path d="M405.687 471.049L405.636 470.964C405.221 470.271 405.097 469.442 405.293 468.658C405.488 467.874 405.987 467.2 406.679 466.783L410.778 464.32L412.398 467.017L405.687 471.049Z" fill="#2F2E41"/>
<path d="M379.974 467.987L379.932 467.986C378.751 467.983 377.57 467.915 376.397 467.783C375.949 467.739 375.464 467.691 374.879 467.643L374.859 467.639C374.46 467.521 374.449 463.779 374.618 450.972C374.705 444.412 374.803 436.977 374.686 432.243L374.685 432.196L374.72 432.165C376.832 430.314 379.352 428.989 382.074 428.298C384.797 427.607 387.644 427.569 390.383 428.189L390.426 428.198L390.448 428.236C392.835 432.273 396.438 438.089 399.923 443.714C407.922 456.625 410.21 460.422 409.959 460.709L409.929 460.732C409.382 461.005 408.972 461.215 408.624 461.394C407.244 462.109 405.826 462.748 404.376 463.31L404.312 463.336L404.265 463.285C396.149 454.392 389.395 444.458 385.217 435.274C384.729 438.409 384.136 442.503 383.51 446.829C381.71 459.267 380.493 467.458 380.003 467.957L379.974 467.987Z" fill="#2F2E41"/>
<path d="M535.155 144.143C535.155 278.867 393.902 343.331 393.902 343.331C393.902 343.331 251.2 278.867 248.302 144.143C246.599 64.9557 312.516 0.728241 391.729 0.728241C470.941 0.728241 535.155 64.9375 535.155 144.143Z" fill="#2563EB"/>
<path d="M396.932 468.861H393.954L392.538 457.378H396.932V468.861Z" fill="#FFB7B7"/>
<path d="M391.828 468.01H397.57V471.625H388.212C388.212 471.15 388.306 470.68 388.488 470.242C388.669 469.803 388.936 469.405 389.271 469.069C389.607 468.733 390.006 468.467 390.444 468.285C390.883 468.104 391.353 468.01 391.828 468.01Z" fill="#2F2E41"/>
<path d="M408.104 468.861H405.126L403.709 457.378H408.104L408.104 468.861Z" fill="#FFB7B7"/>
<path d="M402.999 468.01H408.741V471.625H399.384C399.384 470.666 399.765 469.747 400.443 469.069C401.121 468.391 402.04 468.01 402.999 468.01Z" fill="#2F2E41"/>
<path d="M396.791 463.076L393.513 462.919C393.234 462.906 392.971 462.786 392.777 462.585C392.583 462.383 392.474 462.115 392.472 461.836L392.244 428.674C392.243 428.517 392.276 428.361 392.34 428.218C392.405 428.074 392.5 427.946 392.619 427.843C392.737 427.739 392.877 427.663 393.028 427.618C393.179 427.574 393.338 427.563 393.494 427.585L406.606 429.489C406.865 429.525 407.103 429.653 407.275 429.85C407.447 430.048 407.542 430.3 407.542 430.562L409.229 461.289C409.23 461.433 409.202 461.576 409.148 461.71C409.093 461.843 409.013 461.965 408.912 462.067C408.81 462.17 408.689 462.251 408.556 462.306C408.423 462.362 408.28 462.39 408.136 462.39H404.602C404.342 462.391 404.089 462.299 403.891 462.129C403.693 461.96 403.562 461.725 403.523 461.467C403.523 461.467 400.854 438.419 400.487 438.433C400.119 438.439 397.928 462.114 397.928 462.114C397.896 462.379 397.767 462.623 397.568 462.801C397.368 462.978 397.11 463.076 396.843 463.077C396.826 463.077 396.808 463.077 396.791 463.076Z" fill="#2F2E41"/>
<path d="M441.711 351.299H346.093L334.503 304.942H453.301L441.711 351.299Z" fill="#3F3D56"/>
<path d="M438.451 430.576H349.353V477.004H438.451V430.576Z" fill="white"/>
<path d="M439.175 477.728H348.628V429.852H439.175V477.728ZM350.077 476.28H437.727V431.3H350.077V476.28Z" fill="#3F3D56"/>
<path d="M412.166 356.765H375.638L371.446 350.178H416.358L412.166 356.765Z" fill="#3F3D56"/>
<path d="M348.266 351.299H346.817V422.282H348.266V351.299Z" fill="#3F3D56"/>
<path d="M440.986 351.299H439.538V422.282H440.986V351.299Z" fill="#3F3D56"/>
<path d="M408.424 304.157L407.539 303.01C449.392 270.737 499.283 215.448 499.283 135.328C499.317 107.266 491.063 79.8196 475.558 56.43C460.053 33.0403 437.987 14.7489 412.127 3.84974L412.691 2.5157C438.814 13.5255 461.104 32.0025 476.766 55.6294C492.429 79.2564 500.766 106.981 500.732 135.328C500.732 216.037 450.534 271.686 408.424 304.157Z" fill="#3F3D56"/>
<path d="M362.063 304.158L361.179 303.01C403.032 270.737 452.923 215.449 452.923 135.328C452.935 107.455 444.78 80.1894 429.468 56.899C414.155 33.6087 392.355 15.3136 366.76 4.27382L367.334 2.94402C393.189 14.0959 415.21 32.5765 430.678 56.1032C446.146 79.63 454.384 107.172 454.372 135.328C454.372 216.037 404.174 271.686 362.063 304.158Z" fill="#3F3D56"/>
<path d="M421.394 304.157C379.283 271.686 329.085 216.037 329.085 135.328C329.074 107.172 337.311 79.6295 352.779 56.1027C368.248 32.5759 390.27 14.0953 416.125 2.94368L416.699 4.27348C391.104 15.3131 369.303 33.6081 353.99 56.8986C338.677 80.189 330.523 107.455 330.534 135.328C330.534 215.448 380.425 270.737 422.278 303.01L421.394 304.157Z" fill="#3F3D56"/>
<path d="M375.034 304.157C332.923 271.686 282.726 216.037 282.726 135.327C282.678 106.87 291.074 79.0374 306.851 55.3522C322.627 31.6669 345.075 13.1932 371.354 2.26851L371.913 3.60538C345.898 14.4203 323.675 32.7083 308.057 56.1556C292.439 79.6029 284.128 107.156 284.175 135.327C284.175 215.449 334.066 270.737 375.919 303.01L375.034 304.157Z" fill="#3F3D56"/>
<path d="M392.453 0.728241H391.004V304.942H392.453V0.728241Z" fill="#3F3D56"/>
<path d="M375.406 420.05L348.84 446.614L349.865 447.638L376.431 421.074L375.406 420.05Z" fill="#3F3D56"/>
<path d="M388.321 419.608L348.831 461.138L349.88 462.136L389.371 420.606L388.321 419.608Z" fill="#3F3D56"/>
<path d="M446.781 420.109H338.125V433.147H446.781V420.109Z" fill="white"/>
<path d="M447.506 433.871H337.4V419.385H447.506V433.871ZM338.849 432.423H446.057V420.833H338.849V432.423Z" fill="#3F3D56"/>
<path d="M318.733 354.361C318.546 354.361 318.367 354.29 318.23 354.163C318.094 354.036 318.011 353.861 317.998 353.675C317.515 347.122 314.576 340.993 309.768 336.514C304.96 332.035 298.638 329.537 292.067 329.52C291.281 329.52 290.455 329.559 289.612 329.638C289.471 329.652 289.329 329.624 289.203 329.559C289.078 329.494 288.973 329.394 288.903 329.271C285.884 323.988 281.377 319.711 275.943 316.973C270.509 314.236 264.389 313.159 258.346 313.878C252.304 314.596 246.607 317.078 241.967 321.014C237.327 324.949 233.948 330.164 232.253 336.008C232.208 336.164 232.113 336.302 231.982 336.398C231.85 336.494 231.691 336.544 231.528 336.54L231.332 336.534C231.23 336.53 231.128 336.527 231.025 336.527C226.041 336.542 221.212 338.262 217.339 341.399C213.467 344.536 210.783 348.904 209.734 353.776C209.699 353.941 209.609 354.09 209.477 354.196C209.346 354.303 209.182 354.361 209.013 354.361H159.593C159.495 354.361 159.399 354.343 159.31 354.306C159.22 354.269 159.138 354.214 159.069 354.146C159.001 354.077 158.946 353.996 158.909 353.906C158.872 353.817 158.853 353.721 158.853 353.623C158.853 353.526 158.872 353.43 158.909 353.341C158.946 353.251 159.001 353.17 159.069 353.101C159.138 353.033 159.22 352.978 159.31 352.941C159.399 352.904 159.495 352.886 159.593 352.886H208.422C209.651 347.818 212.543 343.308 216.635 340.076C220.727 336.843 225.784 335.074 230.999 335.052C232.856 329.047 236.416 323.71 241.249 319.69C246.081 315.67 251.976 313.14 258.219 312.407C264.462 311.674 270.784 312.769 276.416 315.56C282.048 318.352 286.748 322.718 289.945 328.129C290.671 328.073 291.383 328.044 292.067 328.044C299.011 328.063 305.692 330.703 310.773 335.437C315.854 340.17 318.96 346.647 319.469 353.572C319.476 353.668 319.464 353.766 319.433 353.857C319.403 353.949 319.354 354.034 319.29 354.107C319.227 354.18 319.15 354.24 319.063 354.284C318.976 354.327 318.882 354.353 318.785 354.359C318.768 354.361 318.75 354.361 318.733 354.361Z" fill="#CBCBCB"/>
<path d="M309.956 363.819H188.978C188.881 363.819 188.785 363.8 188.695 363.763C188.605 363.726 188.523 363.672 188.455 363.603C188.386 363.535 188.331 363.453 188.294 363.364C188.257 363.274 188.238 363.178 188.238 363.081C188.238 362.984 188.257 362.888 188.294 362.798C188.331 362.709 188.386 362.627 188.455 362.559C188.523 362.49 188.605 362.436 188.695 362.399C188.785 362.362 188.881 362.343 188.978 362.343H309.956C310.152 362.343 310.339 362.421 310.478 362.559C310.616 362.698 310.694 362.885 310.694 363.081C310.694 363.277 310.616 363.464 310.478 363.603C310.339 363.741 310.152 363.819 309.956 363.819Z" fill="#CBCBCB"/>
<path d="M218.484 374.514H177.912C177.815 374.514 177.719 374.496 177.629 374.459C177.54 374.422 177.458 374.367 177.389 374.299C177.321 374.23 177.266 374.149 177.229 374.059C177.192 373.97 177.172 373.874 177.172 373.776C177.172 373.679 177.192 373.583 177.229 373.494C177.266 373.404 177.321 373.323 177.389 373.254C177.458 373.186 177.54 373.131 177.629 373.094C177.719 373.057 177.815 373.039 177.912 373.039H218.484C218.581 373.039 218.678 373.057 218.767 373.094C218.857 373.131 218.939 373.186 219.007 373.254C219.076 373.323 219.131 373.404 219.168 373.494C219.205 373.583 219.224 373.679 219.224 373.776C219.224 373.874 219.205 373.97 219.168 374.059C219.131 374.149 219.076 374.23 219.007 374.299C218.939 374.367 218.857 374.422 218.767 374.459C218.678 374.496 218.581 374.514 218.484 374.514Z" fill="#CBCBCB"/>
</g>
<defs>
<clipPath id="clip0_47_523">
<rect width="627" height="477" fill="white" transform="translate(0.5 0.728241)"/>
</clipPath>
</defs>
</svg>
