<svg xmlns="http://www.w3.org/2000/svg" xmlns:xlink="http://www.w3.org/1999/xlink" width="791.236" height="266.87" viewBox="0 0 791.236 266.87">
  <defs>
    <linearGradient id="linear-gradient" x1="0.5" x2="1.434" y2="0.5" gradientUnits="objectBoundingBox">
      <stop offset="0" stop-color="#437bff"/>
      <stop offset="1" stop-color="#0f55fb"/>
    </linearGradient>
    <linearGradient id="linear-gradient-2" x1="0.857" x2="-0.189" y2="1.279" gradientUnits="objectBoundingBox">
      <stop offset="0" stop-color="#ff67f3"/>
      <stop offset="1" stop-color="#ba00ff"/>
    </linearGradient>
  </defs>
  <g id="emyht-logo" transform="translate(-233.062 -130.586)">
    <path id="emyht-text" d="M52.688,2.492A46.9,46.9,0,0,1,29.459-3.115,39.467,39.467,0,0,1,13.8-18.957Q8.188-29.192,8.188-43.076v-2.136q0-13.884,5.518-24.119A39.041,39.041,0,0,1,29.192-85.173q9.968-5.607,23.14-5.607,12.994,0,22.606,5.785A39.749,39.749,0,0,1,89.89-68.975q5.34,10.235,5.34,23.763v7.654H30.972a19.962,19.962,0,0,0,6.764,14.774,22.737,22.737,0,0,0,15.664,5.7q9.434,0,13.884-4.094a28.813,28.813,0,0,0,6.764-9.078l18.334,9.612a56.875,56.875,0,0,1-7.209,10.057A39.037,39.037,0,0,1,72.624-1.335Q64.792,2.492,52.688,2.492ZM31.15-54.29h41.3a17.609,17.609,0,0,0-6.141-12.282Q60.876-71.2,52.154-71.2q-9.078,0-14.418,4.628A19.893,19.893,0,0,0,31.15-54.29ZM115.166,0V-88.288h22.072v9.612h3.2a20.288,20.288,0,0,1,7.654-7.743q5.34-3.293,14.062-3.293,9.434,0,15.13,3.649a24.45,24.45,0,0,1,8.722,9.523h3.2a26.014,26.014,0,0,1,8.544-9.434q5.518-3.738,15.664-3.738a31.727,31.727,0,0,1,14.863,3.471,25.976,25.976,0,0,1,10.68,10.5q4,7.031,4.005,17.711V0H220.542V-56.426q0-7.3-3.738-10.947t-10.5-3.649q-7.654,0-11.837,4.895t-4.183,13.973V0H167.854V-56.426q0-7.3-3.738-10.947t-10.5-3.649q-7.654,0-11.837,4.895t-4.183,13.973V0Zm160.2,35.6V16.02h48.06q4.984,0,4.984-5.34V-11.57h-3.2a21.936,21.936,0,0,1-4.45,6.052,22.866,22.866,0,0,1-8.188,4.984A37.6,37.6,0,0,1,299.4,1.424a34.035,34.035,0,0,1-18.067-4.717,32.023,32.023,0,0,1-12.015-13.083A41.692,41.692,0,0,1,265.042-35.6V-88.288H287.47V-37.38q0,9.968,4.895,14.952t13.973,4.984q10.324,0,16.02-6.853t5.7-19.135V-88.288h22.428V15.664q0,9.078-5.34,14.507T330.9,35.6ZM375.4,0V-124.6H397.83v47.17h3.2a20.756,20.756,0,0,1,4.45-5.7,23.538,23.538,0,0,1,8.1-4.717,37.815,37.815,0,0,1,12.9-1.869,34.036,34.036,0,0,1,18.067,4.717A32.158,32.158,0,0,1,456.57-72a41.552,41.552,0,0,1,4.272,19.313V0H438.414V-50.908q0-9.968-4.9-14.952t-13.973-4.984q-10.324,0-16.02,6.853t-5.7,19.135V0ZM516.378,0q-8.722,0-14.151-5.429T496.8-19.936v-49.84H474.726V-88.288H496.8V-115.7h22.428v27.412h24.208v18.512H519.226v45.924q0,5.34,4.984,5.34H541.3V0Z" transform="translate(480.864 318.044)" fill="#05f"/>
    <g id="icon" transform="translate(233.062 130.586)">
      <path id="right" d="M31.785,266.87.392,212.292l45.386-78.048L0,54.66,31.785,0l80.233,132.708L31.785,266.87Z" transform="translate(110.994)" fill="url(#linear-gradient)"/>
      <path id="left" d="M64.332,0l66.884,110.628L64.332,222.468,0,110.628Z" transform="translate(131.216 244.667) rotate(180)" fill="url(#linear-gradient-2)"/>
    </g>
  </g>
</svg>
