<svg width="400" height="400" viewBox="0 0 400 400" fill="none" xmlns="http://www.w3.org/2000/svg">
<rect width="400" height="400" fill="url(#paint0_linear_2_10)"/>
<path d="M211.4 154.5C211.4 179.632 190.987 200 165.8 200C140.613 200 120.2 179.632 120.2 154.5C120.2 129.368 140.613 109 165.8 109C190.987 109 211.4 129.368 211.4 154.5ZM86 280.443C86 245.429 114.429 217.062 149.519 217.062H182.081C217.171 217.062 245.6 245.429 245.6 280.443C245.6 286.272 240.862 291 235.019 291H96.5806C90.7381 291 86 286.272 86 280.443ZM303.063 291H253.936C255.86 287.659 257 283.784 257 279.625V276.781C257 255.204 247.346 235.831 232.134 222.821C232.989 222.786 233.808 222.75 234.663 222.75H256.537C288.279 222.75 314 248.415 314 280.087C314 286.13 309.084 291 303.063 291ZM239.9 200C228.856 200 218.881 195.521 211.649 188.305C218.668 178.85 222.8 167.155 222.8 154.5C222.8 144.973 220.449 135.98 216.281 128.089C222.907 123.254 231.065 120.375 239.9 120.375C261.952 120.375 279.8 138.184 279.8 160.188C279.8 182.191 261.952 200 239.9 200Z" fill="white"/>
<defs>
<linearGradient id="paint0_linear_2_10" x1="0" y1="0" x2="400" y2="400" gradientUnits="userSpaceOnUse">
<stop stop-color="#F501FD"/>
<stop offset="1" stop-color="#FFCC33"/>
</linearGradient>
</defs>
</svg>
